<svg 
  xmlns="http://www.w3.org/2000/svg" 
  fill="none" 
  viewBox="0 0 14 14" 
  height="100%" 
  width="100%">
  <path 
    fill="#FF4848" 
    fill-rule="evenodd" 
    d="M9.148 5.412 7.561 7l1.587 1.588a.395.395 0 1 1-.56.56L7 7.56 5.412 9.147a.397.397 0 0 1-.56-.56L6.439 7 4.852 5.412a.396.396 0 1 1 .56-.56L7 6.44l1.588-1.588a.396.396 0 1 1 .56.56ZM7 13.208A6.215 6.215 0 0 1 .792 7 6.214 6.214 0 0 1 7 .792 6.214 6.214 0 0 1 13.207 7 6.215 6.215 0 0 1 7 13.208ZM7 0C3.14 0 0 3.14 0 7s3.14 7 7 7 7-3.14 7-7-3.14-7-7-7Z" 
    clip-rule="evenodd"/>
</svg>
